HIERARCHY
ROOT joint_Root
{
	OFFSET 0.0 0.0 0.0
	CHANNELS 6 Xposition Yposition Zposition Zrotation Xrotation Yrotation 
	JOINT Hips
	{
		OFFSET 4.5925 91.4895 -427.239
		CHANNELS 6 Xposition Yposition Zposition Zrotation Xrotation Yrotation 
		JOINT Spine
		{
			OFFSET 15.7357 0.0 0.0
			CHANNELS 6 Xposition Yposition Zposition Zrotation Xrotation Yrotation 
			JOINT Chest
			{
				OFFSET 8.98455 -0.406207 0.0
				CHANNELS 6 Xposition Yposition Zposition Zrotation Xrotation Yrotation 
				JOINT Neck
				{
					OFFSET 16.3773 0.0 0.0
					CHANNELS 6 Xposition Yposition Zposition Zrotation Xrotation Yrotation 
					JOINT Head
					{
						OFFSET 6.45672 0.0 0.0
						CHANNELS 6 Xposition Yposition Zposition Zrotation Xrotation Yrotation 
						End Site
						{
							OFFSET 0.0 0.0 0.0
						}
					}
				}
				JOINT Shoulder_L
				{
					OFFSET 12.9942 -0.242716 4.98039
					CHANNELS 6 Xposition Yposition Zposition Zrotation Xrotation Yrotation 
					JOINT UpperArm_L
					{
						OFFSET 5.34809 0.0 0.0
						CHANNELS 6 Xposition Yposition Zposition Zrotation Xrotation Yrotation 
						JOINT LowerArm_L
						{
							OFFSET 24.3286 1.87007e-05 0.0
							CHANNELS 6 Xposition Yposition Zposition Zrotation Xrotation Yrotation 
							JOINT Hand_L
							{
								OFFSET 22.2916 0.0 0.0
								CHANNELS 6 Xposition Yposition Zposition Zrotation Xrotation Yrotation 
								End Site
								{
									OFFSET 0.0 0.0 0.0
								}
							}
						}
					}
				}
				JOINT Shoulder_R
				{
					OFFSET 12.9945 -0.242716 -4.98039
					CHANNELS 6 Xposition Yposition Zposition Zrotation Xrotation Yrotation 
					JOINT UpperArm_R
					{
						OFFSET -5.34813 0.0 0.0
						CHANNELS 6 Xposition Yposition Zposition Zrotation Xrotation Yrotation 
						JOINT LowerArm_R
						{
							OFFSET -24.3289 0.000322201 0.0
							CHANNELS 6 Xposition Yposition Zposition Zrotation Xrotation Yrotation 
							JOINT Hand_R
							{
								OFFSET -22.2915 -0.000108084 0.0
								CHANNELS 6 Xposition Yposition Zposition Zrotation Xrotation Yrotation 
								End Site
								{
									OFFSET 0.0 0.0 0.0
								}
							}
						}
					}
				}
			}
		}
		JOINT UpperLeg_L
		{
			OFFSET -2.19248 -6.46944 0.0
			CHANNELS 6 Xposition Yposition Zposition Zrotation Xrotation Yrotation 
			JOINT LowerLeg_L
			{
				OFFSET 39.0811 0.0 -1.23785e-05
				CHANNELS 6 Xposition Yposition Zposition Zrotation Xrotation Yrotation 
				JOINT Foot_L
				{
					OFFSET 40.9854 0.0 -1.26872e-05
					CHANNELS 6 Xposition Yposition Zposition Zrotation Xrotation Yrotation 
					JOINT Toes_L
					{
						OFFSET 11.7543 0.0 0.0
						CHANNELS 6 Xposition Yposition Zposition Zrotation Xrotation Yrotation 
						End Site
						{
							OFFSET 0.0 0.0 0.0
						}
					}
				}
			}
		}
		JOINT UpperLeg_R
		{
			OFFSET -2.19251 6.46944 0.0
			CHANNELS 6 Xposition Yposition Zposition Zrotation Xrotation Yrotation 
			JOINT LowerLeg_R
			{
				OFFSET -39.0811 -0.00228153 -0.0401928
				CHANNELS 6 Xposition Yposition Zposition Zrotation Xrotation Yrotation 
				JOINT Foot_R
				{
					OFFSET -40.9854 0.0 0.0
					CHANNELS 6 Xposition Yposition Zposition Zrotation Xrotation Yrotation 
					JOINT Toes_R
					{
						OFFSET -11.7543 0.0 0.0
						CHANNELS 6 Xposition Yposition Zposition Zrotation Xrotation Yrotation 
						End Site
						{
							OFFSET 0.0 0.0 0.0
						}
					}
				}
			}
		}
	}
}
MOTION
Frames:	7
Frame Time:	0.0333333
0.000000 0.000000 0.000000 0.000000 0.000000 -0.000000 -2.653840 90.323200 -1.146280 92.280600 -2.440120 7.618650 15.735700 0.000005 -0.000001 90.363300 83.701800 -85.119500 8.984550 -0.406207 -0.000000 4.854170 -0.052561 10.477900 16.377300 -0.000001 -0.000001 7.403970 -2.912830 -0.828013 6.456720 -0.000001 -0.000000 3.313840 -3.791480 8.620280 12.994200 -0.242716 4.980390 -85.569700 -9.125140 -63.965200 5.348090 -0.000007 -0.000001 -13.682400 -58.808400 -43.673400 24.328600 0.000019 0.000005 0.256766 0.429405 -31.600100 22.291600 -0.000001 0.000005 16.882000 5.124100 4.547710 12.994500 -0.242716 -4.980390 87.594300 8.075990 -73.350700 -5.348130 -0.000001 -0.000004 -54.480000 -4.172240 -0.529832 -24.328900 0.000322 -0.000009 -11.136000 -16.724700 -34.370900 -22.291500 -0.000108 -0.000004 24.238900 5.513710 -7.096170 -2.192480 -6.469440 -0.000000 -174.492000 -18.750400 -2.507580 39.081100 -0.000007 -0.000012 -0.140074 0.231407 31.187500 40.985400 -0.000006 -0.000013 0.268105 12.722200 -70.078300 11.754300 -0.000000 0.000003 -0.000058 -0.000643 -16.602500 -2.192510 6.469440 -0.000001 173.911000 17.621700 176.224000 -39.081100 -0.002282 -0.040193 -0.166604 0.248216 34.390700 -40.985400 0.000008 0.000006 5.604700 10.604900 -73.624700 -11.754300 -0.000006 -0.000006 -0.483309 -0.592630 -16.199700
0.000000 0.000000 0.000000 0.000000 0.000000 -0.000000 -2.873640 90.221900 -1.219210 92.361000 -2.102180 7.988390 15.735700 0.000005 -0.000001 90.589200 83.514000 -85.027700 8.984550 -0.406207 -0.000000 5.229040 0.011138 11.110000 16.377300 -0.000001 -0.000001 7.419540 -3.531010 0.152624 6.456720 -0.000001 -0.000000 3.099850 -4.334790 8.190780 12.994200 -0.242716 4.980390 -86.509500 -7.987440 -66.301900 5.348090 -0.000007 -0.000001 -21.764600 -49.424800 -39.901100 24.328600 0.000019 0.000005 2.630030 5.718420 -24.750000 22.291600 -0.000001 0.000005 20.914700 5.058840 6.013710 12.994500 -0.242716 -4.980390 87.480800 8.285220 -73.021700 -5.348130 -0.000001 -0.000004 -54.412600 -3.567640 -0.439354 -24.328900 0.000322 -0.000009 -11.194600 -16.284300 -35.211700 -22.291500 -0.000108 -0.000004 24.730700 5.519670 -7.347560 -2.192480 -6.469440 -0.000000 -174.428000 -18.125400 -2.471300 39.081100 -0.000007 -0.000012 -0.156648 0.254279 31.635300 40.985400 -0.000006 -0.000013 0.110242 12.527700 -70.191900 11.754300 -0.000000 0.000003 -0.000059 -0.000653 -16.602900 -2.192510 6.469440 -0.000001 173.793000 17.799700 176.400000 -39.081100 -0.002282 -0.040193 -0.187151 0.273488 34.851600 -40.985400 0.000008 0.000006 5.389080 10.545800 -73.804100 -11.754300 -0.000006 -0.000006 -0.530674 -0.652593 -16.162400
0.000000 0.000000 0.000000 0.000000 0.000000 -0.000000 -2.964780 90.206600 -1.318510 92.379000 -2.053090 8.055070 15.735700 0.000005 -0.000001 89.269200 83.359200 -83.397200 8.984550 -0.406207 -0.000000 5.556170 -0.280876 11.744300 16.377300 -0.000001 -0.000001 6.928360 -4.061110 1.152730 6.456720 -0.000001 -0.000000 2.857700 -4.238440 7.613690 12.994200 -0.242716 4.980390 -87.332000 -6.480180 -67.563800 5.348090 -0.000007 -0.000001 -37.820200 -46.957400 -40.006400 24.328600 0.000019 0.000005 0.543890 1.468130 -20.323100 22.291600 -0.000001 0.000005 22.225300 4.944700 8.561550 12.994500 -0.242716 -4.980390 87.441200 8.376930 -72.946600 -5.348130 -0.000001 -0.000004 -54.447600 -3.100870 -0.811215 -24.328900 0.000322 -0.000009 -11.325900 -16.514100 -35.166700 -22.291500 -0.000108 -0.000004 24.862000 5.520450 -7.380840 -2.192480 -6.469440 -0.000000 -174.473000 -17.723000 -2.558810 39.081100 -0.000007 -0.000012 -0.171613 0.277666 31.718600 40.985400 -0.000006 -0.000013 -0.025256 12.214800 -70.138400 11.754300 -0.000000 0.000003 -0.000063 -0.000690 -16.604300 -2.192510 6.469440 -0.000001 173.714000 18.112900 176.403000 -39.081100 -0.002282 -0.040193 -0.204482 0.297656 34.916400 -40.985400 0.000008 0.000006 5.208360 10.883700 -73.745000 -11.754300 -0.000006 -0.000006 -0.475771 -0.585424 -16.205200
0.000000 0.000000 0.000000 0.000000 0.000000 -0.000000 -2.998660 90.165100 -1.377640 92.366000 -2.677950 8.089370 15.735700 0.000005 -0.000001 88.655200 83.173200 -82.688300 8.984550 -0.406207 -0.000000 5.933520 -0.413579 11.941900 16.377300 -0.000001 -0.000001 6.362890 -4.700410 2.152040 6.456720 -0.000001 -0.000000 2.396880 -4.966450 7.466100 12.994200 -0.242716 4.980390 -87.932500 -5.002960 -67.511900 5.348090 -0.000007 -0.000001 -54.382000 -50.553500 -42.640000 24.328600 0.000019 0.000005 3.236300 9.354880 -19.185100 22.291600 -0.000001 0.000005 15.455600 4.759790 12.061200 12.994500 -0.242716 -4.980390 87.500200 8.321420 -73.214100 -5.348130 -0.000001 -0.000004 -54.931400 -2.628840 -0.779296 -24.328900 0.000322 -0.000009 -11.175900 -16.545400 -34.749000 -22.291500 -0.000108 -0.000004 24.474200 5.512260 -7.035330 -2.192480 -6.469440 -0.000000 -174.300000 -18.378800 -2.541340 39.081100 -0.000007 -0.000012 -0.180744 0.290113 31.923600 40.985400 -0.000006 -0.000013 -0.023764 12.227800 -70.248000 11.754300 -0.000000 0.000003 -0.000054 -0.000607 -16.601100 -2.192510 6.469440 -0.000001 173.682000 17.934600 176.235000 -39.081100 -0.002282 -0.040193 -0.239077 0.345178 35.075100 -40.985400 0.000008 0.000006 4.832110 11.449600 -73.654300 -11.754300 -0.000006 -0.000006 -0.156138 -0.191576 -16.455900
0.000000 0.000000 0.000000 0.000000 0.000000 -0.000000 -3.071550 90.089200 -1.443330 92.286400 -3.283040 8.016800 15.735700 0.000005 -0.000001 89.206500 83.007600 -83.311800 8.984550 -0.406207 -0.000000 6.258620 -0.269250 11.791200 16.377300 -0.000001 -0.000001 5.523260 -5.145450 2.481860 6.456720 -0.000001 -0.000000 2.043050 -5.947370 7.266510 12.994200 -0.242716 4.980390 -88.031800 -4.655710 -67.053000 5.348090 -0.000007 -0.000001 -56.868800 -49.358100 -40.284900 24.328600 0.000019 0.000005 3.793820 11.293900 -18.703600 22.291600 -0.000001 0.000005 19.278000 4.667040 13.738100 12.994500 -0.242716 -4.980390 87.679700 7.911970 -73.597600 -5.348130 -0.000001 -0.000004 -55.847500 -2.020890 -0.096285 -24.328900 0.000322 -0.000009 -10.677600 -16.145400 -34.136100 -22.291500 -0.000108 -0.000004 24.320600 5.508260 -6.870010 -2.192480 -6.469440 -0.000000 -174.117000 -18.808100 -2.776800 39.081100 -0.000007 -0.000012 -0.180873 0.285663 32.341000 40.985400 -0.000006 -0.000013 -0.080573 12.103600 -70.437200 11.754300 -0.000000 0.000003 -0.000051 -0.000571 -16.599700 -2.192510 6.469440 -0.000001 173.865000 17.741500 175.845000 -39.081100 -0.002282 -0.040193 -0.247449 0.352592 35.418100 -40.985400 0.000008 0.000006 4.838180 11.828700 -73.723100 -11.754300 -0.000006 -0.000006 -0.029726 -0.036718 -16.556900
0.000000 0.000000 0.000000 0.000000 0.000000 -0.000000 -3.224400 89.998000 -1.437620 92.211100 -3.271990 8.026020 15.735700 0.000005 -0.000001 90.717700 82.960700 -85.060100 8.984550 -0.406207 -0.000000 6.331350 0.106239 11.296700 16.377300 -0.000001 -0.000001 5.177450 -5.278940 1.939890 6.456720 -0.000001 -0.000000 1.735870 -6.409410 6.802590 12.994200 -0.242716 4.980390 -87.844000 -5.009910 -66.678900 5.348090 -0.000007 -0.000001 -59.555300 -51.051000 -46.198500 24.328600 0.000019 0.000005 2.886320 8.753230 -18.331500 22.291600 -0.000001 0.000005 20.139900 4.622760 14.522500 12.994500 -0.242716 -4.980390 87.723400 7.764530 -73.602900 -5.348130 -0.000001 -0.000004 -56.412900 -1.192160 1.188310 -24.328900 0.000322 -0.000009 -10.332100 -16.066400 -33.372000 -22.291500 -0.000108 -0.000004 24.280900 5.507310 -6.830350 -2.192480 -6.469440 -0.000000 -174.034000 -18.281400 -3.008900 39.081100 -0.000007 -0.000012 -0.193278 0.300103 32.783400 40.985400 -0.000006 -0.000013 -0.280099 11.682400 -70.643800 11.754300 -0.000000 0.000003 -0.000053 -0.000592 -16.600500 -2.192510 6.469440 -0.000001 174.024000 17.942600 175.693000 -39.081100 -0.002282 -0.040193 -0.240202 0.337354 35.820800 -40.985400 0.000008 0.000006 5.253640 11.825600 -74.042100 -11.754300 -0.000006 -0.000006 -0.161866 -0.198325 -16.451100
0.000000 0.000000 0.000000 0.000000 0.000000 -0.000000 -3.395980 89.970200 -1.302610 91.936700 -2.644040 8.196620 15.735700 0.000005 -0.000001 92.117100 83.030100 -86.664900 8.984550 -0.406207 -0.000000 6.166770 0.438538 10.868600 16.377300 -0.000001 -0.000001 5.650210 -5.285500 0.938413 6.456720 -0.000001 -0.000000 1.743560 -6.692680 6.266910 12.994200 -0.242716 4.980390 -87.490200 -5.733090 -66.309200 5.348090 -0.000007 -0.000001 -58.615700 -52.673400 -54.754900 24.328600 0.000019 0.000005 2.601170 6.804970 -20.987500 22.291600 -0.000001 0.000005 20.936200 4.732170 12.571000 12.994500 -0.242716 -4.980390 87.710500 7.689090 -73.363000 -5.348130 -0.000001 -0.000004 -56.440700 -0.679886 2.465010 -24.328900 0.000322 -0.000009 -9.906380 -16.353600 -31.806400 -22.291500 -0.000108 -0.000004 23.767800 5.506280 -6.787750 -2.192480 -6.469440 -0.000000 -173.783000 -17.104700 -2.971690 39.081100 -0.000007 -0.000012 -0.201222 0.310091 32.980400 40.985400 -0.000006 -0.000013 -0.524029 11.275600 -70.758200 11.754300 -0.000000 0.000003 -0.000071 -0.000769 -16.607200 -2.192510 6.469440 -0.000001 174.231000 18.626600 176.179000 -39.081100 -0.002282 -0.040193 -0.217377 0.306733 35.731800 -40.985400 0.000008 0.000006 5.614330 11.730900 -74.260100 -11.754300 -0.000006 -0.000006 -0.307637 -0.378127 -16.337100
